<svg xmlns="http://www.w3.org/2000/svg" xmlns:xlink="http://www.w3.org/1999/xlink" width="500" zoomAndPan="magnify" viewBox="0 0 375 374.999991" height="500" preserveAspectRatio="xMidYMid meet" version="1.0"><defs><g/><clipPath id="8a08a7fce6"><path d="M 90.097656 90.097656 L 284.898438 90.097656 L 284.898438 284.898438 L 90.097656 284.898438 Z M 90.097656 90.097656 " clip-rule="nonzero"/></clipPath><clipPath id="2ade6a0533"><path d="M 187.496094 90.097656 C 133.703125 90.097656 90.097656 133.703125 90.097656 187.496094 C 90.097656 241.289062 133.703125 284.898438 187.496094 284.898438 C 241.289062 284.898438 284.898438 241.289062 284.898438 187.496094 C 284.898438 133.703125 241.289062 90.097656 187.496094 90.097656 Z M 187.496094 90.097656 " clip-rule="nonzero"/></clipPath><clipPath id="32d2a11717"><path d="M 119.304688 119.304688 L 255.6875 119.304688 L 255.6875 255.6875 L 119.304688 255.6875 Z M 119.304688 119.304688 " clip-rule="nonzero"/></clipPath><clipPath id="73dd99a54a"><path d="M 187.496094 119.304688 C 149.835938 119.304688 119.304688 149.835938 119.304688 187.496094 C 119.304688 225.15625 149.835938 255.6875 187.496094 255.6875 C 225.15625 255.6875 255.6875 225.15625 255.6875 187.496094 C 255.6875 149.835938 225.15625 119.304688 187.496094 119.304688 Z M 187.496094 119.304688 " clip-rule="nonzero"/></clipPath><clipPath id="e83803af9d"><path d="M 259.519531 181.179688 L 282.769531 181.179688 L 282.769531 204.429688 L 259.519531 204.429688 Z M 259.519531 181.179688 " clip-rule="nonzero"/></clipPath><clipPath id="df91667b94"><path d="M 94.261719 181.179688 L 117.511719 181.179688 L 117.511719 204.429688 L 94.261719 204.429688 Z M 94.261719 181.179688 " clip-rule="nonzero"/></clipPath><clipPath id="c2a2f7f82b"><path d="M 214 161 L 217 161 L 217 231.816406 L 214 231.816406 Z M 214 161 " clip-rule="nonzero"/></clipPath><clipPath id="4d2ce555d2"><path d="M 198 176 L 202 176 L 202 231.816406 L 198 231.816406 Z M 198 176 " clip-rule="nonzero"/></clipPath><clipPath id="5dc8e5a872"><path d="M 183 192 L 186 192 L 186 231.816406 L 183 231.816406 Z M 183 192 " clip-rule="nonzero"/></clipPath><clipPath id="bbd4d956b3"><path d="M 167 208 L 171 208 L 171 231.816406 L 167 231.816406 Z M 167 208 " clip-rule="nonzero"/></clipPath><clipPath id="b69cf9ff16"><path d="M 152.03125 219 L 155 219 L 155 231.816406 L 152.03125 231.816406 Z M 152.03125 219 " clip-rule="nonzero"/></clipPath><clipPath id="22f9c23198"><path d="M 152.03125 143.316406 L 223.28125 143.316406 L 223.28125 231.816406 L 152.03125 231.816406 Z M 152.03125 143.316406 " clip-rule="nonzero"/></clipPath><clipPath id="cd921cbc87"><path d="M 214 143.316406 L 223.28125 143.316406 L 223.28125 152 L 214 152 Z M 214 143.316406 " clip-rule="nonzero"/></clipPath></defs><rect x="-37.5" width="450" fill="#ffffff" y="-37.499999" height="449.999989" fill-opacity="1"/><rect x="-37.5" width="450" fill="#ebecf0" y="-37.499999" height="449.999989" fill-opacity="1"/><g clip-path="url(#8a08a7fce6)"><g clip-path="url(#2ade6a0533)"><path stroke-linecap="butt" transform="matrix(0.75, 0, 0, 0.75, 90.096678, 90.096673)" fill="none" stroke-linejoin="miter" d="M 129.865896 0.00131062 C 58.141933 0.00131062 0.00130462 58.141939 0.00130462 129.865902 C 0.00130462 201.589866 58.141933 259.735703 129.865896 259.735703 C 201.58986 259.735703 259.735697 201.589866 259.735697 129.865902 C 259.735697 58.141939 201.58986 0.00131062 129.865896 0.00131062 Z M 129.865896 0.00131062 " stroke="#000000" stroke-width="4" stroke-opacity="1" stroke-miterlimit="4"/></g></g><g clip-path="url(#32d2a11717)"><g clip-path="url(#73dd99a54a)"><path stroke-linecap="butt" transform="matrix(0.75, 0, 0, 0.75, 119.304393, 119.304388)" fill="none" stroke-linejoin="miter" d="M 90.922274 0.000399112 C 40.708729 0.000399112 0.000393112 40.708735 0.000393112 90.92228 C 0.000393112 141.135825 40.708729 181.844161 90.922274 181.844161 C 141.135819 181.844161 181.844155 141.135825 181.844155 90.92228 C 181.844155 40.708735 141.135819 0.000399112 90.922274 0.000399112 Z M 90.922274 0.000399112 " stroke="#000000" stroke-width="4" stroke-opacity="1" stroke-miterlimit="4"/></g></g><g fill="#000000" fill-opacity="1"><g transform="translate(111.973523, 169.063052)"><g><path d="M -0.984375 -1.484375 L -0.8125 -2.65625 L -10.046875 -6.0625 L -10.703125 -5.0625 L -12.046875 -5.546875 L -10.671875 -9.265625 L -2.609375 -9.796875 L -0.984375 -9.8125 L -7.96875 -16.59375 L -6.59375 -20.34375 L -5.25 -19.859375 L -5.40625 -18.65625 L 3.828125 -15.25 L 4.46875 -16.28125 L 5.8125 -15.78125 L 4.203125 -11.421875 L 2.859375 -11.921875 L 3.03125 -13.09375 L -4.546875 -15.890625 L 1.203125 -10.3125 L 0.390625 -8.109375 L -7.59375 -7.609375 L -0.015625 -4.8125 L 0.625 -5.84375 L 1.96875 -5.34375 L 0.359375 -0.984375 Z M -0.984375 -1.484375 "/></g></g></g><g fill="#000000" fill-opacity="1"><g transform="translate(118.667327, 151.664806)"><g><path d="M 4.15625 -6.015625 C 3.207031 -4.546875 2.113281 -3.644531 0.875 -3.3125 C -0.351562 -2.976562 -1.625 -3.238281 -2.9375 -4.09375 L -8.6875 -7.8125 L -9.53125 -6.9375 L -10.734375 -7.71875 L -8.203125 -11.625 L -7 -10.84375 L -7.453125 -9.734375 L -1.703125 -6.015625 C -0.828125 -5.453125 -0.0078125 -5.242188 0.75 -5.390625 C 1.507812 -5.546875 2.171875 -6.0625 2.734375 -6.9375 C 3.285156 -7.789062 3.476562 -8.597656 3.3125 -9.359375 C 3.144531 -10.117188 2.625 -10.78125 1.75 -11.34375 L -4 -15.0625 L -4.84375 -14.203125 L -6.046875 -14.984375 L -3.53125 -18.875 L -2.328125 -18.09375 L -2.75 -16.984375 L 3 -13.265625 C 4.3125 -12.410156 5.066406 -11.351562 5.265625 -10.09375 C 5.472656 -8.84375 5.101562 -7.484375 4.15625 -6.015625 Z M 4.15625 -6.015625 "/></g></g></g><g fill="#000000" fill-opacity="1"><g transform="translate(127.148427, 138.719186)"><g><path d="M -0.296875 -1.75 L 0.34375 -2.765625 L -6.6875 -9.640625 L -7.6875 -8.984375 L -8.703125 -10 L -5.453125 -13.3125 L -4.4375 -12.296875 L -5.078125 -11.28125 L -2.296875 -8.5625 L 1.578125 -12.515625 L -1.203125 -15.234375 L -2.21875 -14.578125 L -3.234375 -15.59375 L 0.015625 -18.90625 L 1.03125 -17.890625 L 0.40625 -16.875 L 7.4375 -10 L 8.421875 -10.65625 L 9.453125 -9.65625 L 6.203125 -6.34375 L 5.171875 -7.34375 L 5.828125 -8.359375 L 2.75 -11.359375 L -1.125 -7.40625 L 1.953125 -4.40625 L 2.953125 -5.0625 L 3.984375 -4.0625 L 0.734375 -0.75 Z M -0.296875 -1.75 "/></g></g></g><g fill="#000000" fill-opacity="1"><g transform="translate(138.04034, 127.775851)"><g><path d="M 10.328125 -8.8125 L 11.140625 -7.625 L 7.375 -5.046875 L 6.5625 -6.234375 L 7.390625 -7.109375 L 5.453125 -8.484375 L 1.578125 -5.84375 L 2.171875 -3.53125 L 3.375 -4.0625 L 4.1875 -2.875 L 0.234375 -0.15625 L -0.578125 -1.34375 L 0.3125 -2.25 L -2.09375 -12.34375 L -3.515625 -11.765625 L -4.375 -13.03125 L -0.953125 -15.359375 L 9.203125 -8.34375 Z M 4 -9.515625 L -0.078125 -12.375 L 1.15625 -7.5625 Z M 4 -9.515625 "/></g></g></g><g fill="#000000" fill-opacity="1"><g transform="translate(150.007401, 119.423399)"><g><path d="M 0.421875 -1.71875 L 1.421875 -2.390625 L -2.265625 -11.515625 L -3.453125 -11.3125 L -3.984375 -12.640625 L -0.296875 -14.125 L 5.5 -8.53125 L 6.609375 -7.328125 L 6.9375 -17.0625 L 10.625 -18.5625 L 11.15625 -17.234375 L 10.171875 -16.546875 L 13.859375 -7.421875 L 15.03125 -7.640625 L 15.578125 -6.3125 L 11.28125 -4.5625 L 10.734375 -5.890625 L 11.734375 -6.5625 L 8.71875 -14.03125 L 8.4375 -6.046875 L 6.265625 -5.171875 L 0.53125 -10.71875 L 3.546875 -3.25 L 4.71875 -3.46875 L 5.265625 -2.140625 L 0.96875 -0.390625 Z M 0.421875 -1.71875 "/></g></g></g><g fill="#000000" fill-opacity="1"><g transform="translate(167.263715, 112.535268)"><g><path d="M 0.828125 -1.578125 L 1.96875 -1.984375 L 0.5625 -11.71875 L -0.65625 -11.8125 L -0.859375 -13.234375 L 3.078125 -13.796875 L 7.390625 -6.96875 L 8.171875 -5.53125 L 10.8125 -14.90625 L 14.75 -15.484375 L 14.953125 -14.0625 L 13.84375 -13.640625 L 15.25 -3.90625 L 16.4375 -3.828125 L 16.640625 -2.40625 L 12.046875 -1.734375 L 11.84375 -3.15625 L 12.96875 -3.578125 L 11.8125 -11.5625 L 9.640625 -3.84375 L 7.328125 -3.515625 L 3.078125 -10.296875 L 4.234375 -2.3125 L 5.421875 -2.234375 L 5.625 -0.8125 L 1.03125 -0.15625 Z M 0.828125 -1.578125 "/></g></g></g><g fill="#000000" fill-opacity="1"><g transform="translate(185.77231, 110.175251)"><g><path d="M 13.578125 -0.453125 L 13.46875 0.984375 L 8.90625 0.640625 L 9.015625 -0.796875 L 10.203125 -0.953125 L 9.546875 -3.234375 L 4.875 -3.578125 L 3.890625 -1.40625 L 5.171875 -1.0625 L 5.0625 0.375 L 0.28125 0.015625 L 0.390625 -1.421875 L 1.65625 -1.578125 L 6.0625 -10.953125 L 4.578125 -11.390625 L 4.6875 -12.921875 L 8.828125 -12.609375 L 12.40625 -0.796875 Z M 9.0625 -4.9375 L 7.671875 -9.71875 L 5.609375 -5.1875 Z M 9.0625 -4.9375 "/></g></g></g><g fill="#000000" fill-opacity="1"><g transform="translate(200.405557, 111.33763)"><g><path d="M 1.390625 -1.125 L 2.578125 -1.046875 L 5.125 -10.5625 L 4.0625 -11.109375 L 4.4375 -12.5 L 10.328125 -10.90625 C 11.992188 -10.46875 13.164062 -9.742188 13.84375 -8.734375 C 14.53125 -7.722656 14.675781 -6.5 14.28125 -5.0625 L 13.265625 -1.234375 C 12.878906 0.203125 12.140625 1.1875 11.046875 1.71875 C 9.953125 2.25 8.570312 2.296875 6.90625 1.859375 L 1.015625 0.265625 Z M 7.328125 0.265625 C 8.273438 0.515625 9.066406 0.460938 9.703125 0.109375 C 10.347656 -0.242188 10.796875 -0.890625 11.046875 -1.828125 L 12.0625 -5.65625 C 12.320312 -6.59375 12.265625 -7.375 11.890625 -8 C 11.515625 -8.625 10.851562 -9.0625 9.90625 -9.3125 L 7.359375 -10 L 4.78125 -0.421875 Z M 7.328125 0.265625 "/></g></g></g><g fill="#000000" fill-opacity="1"><g transform="translate(214.511221, 115.50752)"><g/></g></g><g fill="#000000" fill-opacity="1"><g transform="translate(220.118157, 117.718525)"><g><path d="M 3.65625 0.4375 L 4.828125 0.796875 L 9.71875 -7.78125 L 8.03125 -8.734375 L 6.890625 -7.5 L 5.359375 -8.375 L 6.984375 -11.234375 L 16.046875 -6.0625 L 14.421875 -3.203125 L 12.90625 -4.078125 L 13.359375 -5.703125 L 11.6875 -6.65625 L 6.796875 1.921875 L 7.703125 2.734375 L 6.984375 3.984375 L 2.9375 1.6875 Z M 3.65625 0.4375 "/></g></g></g><g fill="#000000" fill-opacity="1"><g transform="translate(230.925082, 123.865683)"><g><path d="M 11.296875 7.53125 L 10.375 8.640625 L 6.859375 5.71875 L 7.78125 4.609375 L 8.84375 5.171875 L 9.65625 2.9375 L 6.0625 -0.0625 L 3.984375 1.125 L 4.828125 2.140625 L 3.90625 3.25 L 0.21875 0.1875 L 1.140625 -0.921875 L 2.25 -0.3125 L 11.3125 -5.359375 L 10.359375 -6.578125 L 11.34375 -7.75 L 14.53125 -5.109375 L 10.53125 6.59375 Z M 10.234375 1.265625 L 11.890625 -3.4375 L 7.59375 -0.9375 Z M 10.234375 1.265625 "/></g></g></g><g fill="#000000" fill-opacity="1"><g transform="translate(242.112944, 133.461423)"><g><path d="M 1.765625 -0.125 L 2.71875 0.59375 L 10.234375 -5.765625 L 9.671875 -6.8125 L 10.765625 -7.734375 L 13.765625 -4.1875 L 12.671875 -3.265625 L 11.71875 -4 L 4.1875 2.390625 L 6.546875 5.1875 L 8.03125 4.359375 L 9.296875 5.859375 L 6.765625 8 L 0.671875 0.796875 Z M 1.765625 -0.125 "/></g></g></g><g fill="#000000" fill-opacity="1"><g transform="translate(249.897264, 142.555714)"><g><path d="M 1.765625 0.1875 L 2.578125 1.078125 L 11.09375 -3.84375 L 10.71875 -4.984375 L 11.96875 -5.703125 L 14.296875 -1.6875 L 13.046875 -0.96875 L 12.234375 -1.859375 L 8.875 0.09375 L 11.640625 4.890625 L 15 2.9375 L 14.640625 1.796875 L 15.890625 1.078125 L 18.203125 5.09375 L 16.953125 5.8125 L 16.15625 4.921875 L 7.640625 9.84375 L 8 10.984375 L 6.75 11.703125 L 4.4375 7.6875 L 5.6875 6.96875 L 6.484375 7.859375 L 10.203125 5.71875 L 7.4375 0.921875 L 3.71875 3.0625 L 4.09375 4.203125 L 2.84375 4.921875 L 0.515625 0.90625 Z M 1.765625 0.1875 "/></g></g></g><g fill="#000000" fill-opacity="1"><g transform="translate(257.504576, 155.991504)"><g><path d="M 5.703125 12.3125 L 4.34375 12.78125 L 2.875 8.46875 L 4.234375 8 L 4.84375 9.03125 L 6.71875 7.53125 L 5.203125 3.09375 L 2.8125 3.03125 L 3 4.34375 L 1.640625 4.8125 L 0.09375 0.265625 L 1.453125 -0.203125 L 2.09375 0.90625 L 12.4375 1.3125 L 12.265625 -0.21875 L 13.71875 -0.703125 L 15.0625 3.21875 L 5.5625 11.109375 Z M 8.078125 6.40625 L 11.9375 3.265625 L 6.96875 3.140625 Z M 8.078125 6.40625 "/></g></g></g><g clip-path="url(#e83803af9d)"><path fill="#000000" d="M 282.769531 192.804688 C 274.050781 194.410156 272.75 195.710938 271.144531 204.429688 C 269.539062 195.710938 268.238281 194.410156 259.519531 192.804688 C 268.238281 191.199219 269.539062 189.898438 271.144531 181.179688 C 272.75 189.898438 274.050781 191.199219 282.769531 192.804688 Z M 282.769531 192.804688 " fill-opacity="1" fill-rule="nonzero"/></g><g fill="#000000" fill-opacity="1"><g transform="translate(108.357619, 219.898145)"><g><path d="M 1.453125 0.34375 L 2.03125 1.1875 L 9.671875 -2.015625 L 9.484375 -3.03125 L 10.59375 -3.5 L 12.578125 1.25 C 13.140625 2.570312 13.257812 3.722656 12.9375 4.703125 C 12.625 5.679688 11.890625 6.414062 10.734375 6.90625 L 7.65625 8.203125 C 6.5 8.679688 5.460938 8.691406 4.546875 8.234375 C 3.628906 7.773438 2.890625 6.882812 2.328125 5.5625 L 0.34375 0.8125 Z M 3.609375 5.03125 C 3.929688 5.789062 4.375 6.285156 4.9375 6.515625 C 5.507812 6.753906 6.171875 6.71875 6.921875 6.40625 L 10 5.109375 C 10.75 4.796875 11.234375 4.351562 11.453125 3.78125 C 11.671875 3.21875 11.617188 2.554688 11.296875 1.796875 L 10.4375 -0.265625 L 2.75 2.96875 Z M 3.609375 5.03125 "/></g></g></g><g fill="#000000" fill-opacity="1"><g transform="translate(114.448275, 233.594471)"><g><path d="M 7.21875 8.859375 L 6.21875 9.515625 L 4.125 6.3125 L 5.125 5.65625 L 5.84375 6.34375 L 7.03125 4.734375 L 4.890625 1.4375 L 2.9375 1.890625 L 3.34375 2.921875 L 2.34375 3.578125 L 0.125 0.203125 L 1.125 -0.453125 L 1.890625 0.296875 L 10.421875 -1.53125 L 9.953125 -2.734375 L 11.03125 -3.4375 L 12.9375 -0.515625 L 6.859375 7.90625 Z M 7.921875 3.53125 L 10.421875 0.171875 L 6.34375 1.09375 Z M 7.921875 3.53125 "/></g></g></g><g fill="#000000" fill-opacity="1"><g transform="translate(123.023146, 246.023681)"><g><path d="M 2.828125 1.28125 L 3.65625 1.84375 L 9.75 -3.8125 L 8.65625 -5 L 7.40625 -4.28125 L 6.390625 -5.359375 L 8.4375 -7.25 L 14.421875 -0.8125 L 12.375 1.078125 L 11.359375 -0.015625 L 12.171875 -1.203125 L 11.078125 -2.390625 L 4.984375 3.265625 L 5.484375 4.140625 L 4.609375 4.953125 L 1.953125 2.09375 Z M 2.828125 1.28125 "/></g></g></g><g fill="#000000" fill-opacity="1"><g transform="translate(132.138363, 255.521709)"><g><path d="M 9.765625 5.9375 L 9.03125 6.890625 L 5.984375 4.578125 L 6.71875 3.625 L 7.625 4.046875 L 8.21875 2.125 L 5.09375 -0.265625 L 3.390625 0.8125 L 4.140625 1.640625 L 3.40625 2.59375 L 0.1875 0.140625 L 0.921875 -0.8125 L 1.875 -0.34375 L 9.328125 -4.90625 L 8.484375 -5.90625 L 9.25 -6.921875 L 12.03125 -4.8125 L 9.109375 5.171875 Z M 8.65625 0.703125 L 9.875 -3.3125 L 6.34375 -1.0625 Z M 8.65625 0.703125 "/></g></g></g><g fill="#000000" fill-opacity="1"><g transform="translate(144.290025, 264.206559)"><g/></g></g><g fill="#000000" fill-opacity="1"><g transform="translate(150.692268, 267.839142)"><g><path d="M 5.1875 2.359375 C 3.800781 1.785156 2.851562 1 2.34375 0 C 1.84375 -0.988281 1.832031 -2.070312 2.3125 -3.25 L 3.59375 -6.34375 C 4.082031 -7.507812 4.859375 -8.265625 5.921875 -8.609375 C 6.984375 -8.953125 8.207031 -8.835938 9.59375 -8.265625 C 11 -7.679688 12.050781 -6.828125 12.75 -5.703125 L 12.28125 -4.546875 L 10.953125 -5.09375 C 10.722656 -5.90625 10.082031 -6.53125 9.03125 -6.96875 C 8.1875 -7.3125 7.445312 -7.363281 6.8125 -7.125 C 6.1875 -6.894531 5.703125 -6.375 5.359375 -5.5625 L 4.109375 -2.5625 C 3.773438 -1.75 3.75 -1.03125 4.03125 -0.40625 C 4.3125 0.207031 4.875 0.6875 5.71875 1.03125 C 6.738281 1.457031 7.632812 1.46875 8.40625 1.0625 L 9.734375 1.609375 L 9.25 2.765625 C 7.945312 3.078125 6.59375 2.941406 5.1875 2.359375 Z M 5.1875 2.359375 "/></g></g></g><g fill="#000000" fill-opacity="1"><g transform="translate(163.485426, 272.864401)"><g><path d="M 5.5 1.4375 C 4.46875 1.195312 3.644531 0.828125 3.03125 0.328125 C 2.414062 -0.171875 2 -0.765625 1.78125 -1.453125 C 1.570312 -2.148438 1.550781 -2.878906 1.71875 -3.640625 L 2.4375 -6.84375 C 2.601562 -7.613281 2.929688 -8.257812 3.421875 -8.78125 C 3.921875 -9.300781 4.550781 -9.65625 5.3125 -9.84375 C 6.082031 -10.039062 6.984375 -10.019531 8.015625 -9.78125 C 9.066406 -9.550781 9.898438 -9.1875 10.515625 -8.6875 C 11.128906 -8.1875 11.539062 -7.59375 11.75 -6.90625 C 11.96875 -6.226562 11.992188 -5.503906 11.828125 -4.734375 L 11.109375 -1.53125 C 10.941406 -0.769531 10.609375 -0.125 10.109375 0.40625 C 9.617188 0.9375 8.988281 1.296875 8.21875 1.484375 C 7.457031 1.679688 6.550781 1.664062 5.5 1.4375 Z M 5.8125 0.046875 C 6.820312 0.265625 7.597656 0.175781 8.140625 -0.21875 C 8.691406 -0.625 9.050781 -1.207031 9.21875 -1.96875 L 9.9375 -5.140625 C 10.101562 -5.910156 10.023438 -6.59375 9.703125 -7.1875 C 9.378906 -7.78125 8.710938 -8.1875 7.703125 -8.40625 C 6.710938 -8.632812 5.941406 -8.550781 5.390625 -8.15625 C 4.847656 -7.757812 4.492188 -7.175781 4.328125 -6.40625 L 3.609375 -3.234375 C 3.441406 -2.472656 3.519531 -1.789062 3.84375 -1.1875 C 4.164062 -0.59375 4.820312 -0.179688 5.8125 0.046875 Z M 5.8125 0.046875 "/></g></g></g><g fill="#000000" fill-opacity="1"><g transform="translate(178.197388, 275.889494)"><g><path d="M 0.90625 -1.171875 L 1.921875 -1.359375 L 2.171875 -9.640625 L 1.171875 -9.890625 L 1.21875 -11.09375 L 4.359375 -11 L 9.6875 -2.515625 L 9.578125 -4.625 L 9.71875 -9.421875 L 8.734375 -9.671875 L 8.78125 -10.875 L 12.6875 -10.75 L 12.640625 -9.546875 L 11.65625 -9.359375 L 11.359375 0.34375 L 9.421875 0.28125 L 4.046875 -8.25 L 3.84375 -1.3125 L 4.828125 -1.0625 L 4.796875 0.140625 L 0.875 0.03125 Z M 0.90625 -1.171875 "/></g></g></g><g fill="#000000" fill-opacity="1"><g transform="translate(194.774433, 275.910651)"><g><path d="M 4.578125 -0.484375 C 2.984375 -0.242188 1.65625 -0.546875 0.59375 -1.390625 L 0.421875 -2.5625 L 2.09375 -2.8125 C 2.601562 -2.039062 3.347656 -1.726562 4.328125 -1.875 C 4.960938 -1.96875 5.4375 -2.195312 5.75 -2.5625 C 6.070312 -2.925781 6.191406 -3.378906 6.109375 -3.921875 C 5.984375 -4.765625 5.503906 -5.257812 4.671875 -5.40625 L 2.125 -5.8125 C 0.570312 -6.09375 -0.300781 -6.925781 -0.5 -8.3125 C -0.644531 -9.269531 -0.4375 -10.050781 0.125 -10.65625 C 0.695312 -11.269531 1.582031 -11.664062 2.78125 -11.84375 C 4.269531 -12.0625 5.523438 -11.804688 6.546875 -11.078125 L 6.734375 -9.78125 L 5.25 -9.5625 C 4.769531 -10.289062 4.019531 -10.582031 3 -10.4375 C 1.769531 -10.25 1.222656 -9.691406 1.359375 -8.765625 C 1.460938 -8.066406 1.925781 -7.65625 2.75 -7.53125 L 5.078125 -7.140625 C 6.804688 -6.835938 7.785156 -5.890625 8.015625 -4.296875 C 8.171875 -3.273438 7.945312 -2.425781 7.34375 -1.75 C 6.75 -1.082031 5.828125 -0.660156 4.578125 -0.484375 Z M 4.578125 -0.484375 "/></g></g></g><g fill="#000000" fill-opacity="1"><g transform="translate(207.355771, 273.888439)"><g><path d="M 5.90625 -1.75 C 4.5 -1.289062 3.300781 -1.28125 2.3125 -1.71875 C 1.332031 -2.15625 0.640625 -2.988281 0.234375 -4.21875 L -1.5625 -9.703125 L -2.5625 -9.59375 L -2.9375 -10.734375 L 0.78125 -11.953125 L 1.15625 -10.8125 L 0.28125 -10.3125 L 2.078125 -4.828125 C 2.359375 -4.003906 2.785156 -3.441406 3.359375 -3.140625 C 3.929688 -2.835938 4.628906 -2.820312 5.453125 -3.09375 C 6.273438 -3.363281 6.832031 -3.789062 7.125 -4.375 C 7.414062 -4.957031 7.421875 -5.660156 7.140625 -6.484375 L 5.34375 -11.96875 L 4.328125 -11.859375 L 3.953125 -13 L 7.671875 -14.21875 L 8.046875 -13.078125 L 7.171875 -12.5625 L 8.96875 -7.078125 C 9.375 -5.847656 9.3125 -4.765625 8.78125 -3.828125 C 8.257812 -2.898438 7.300781 -2.207031 5.90625 -1.75 Z M 5.90625 -1.75 "/></g></g></g><g fill="#000000" fill-opacity="1"><g transform="translate(222.241671, 268.539115)"><g><path d="M 0.203125 -1.46875 L 0.984375 -2.125 L -2.90625 -9.4375 L -3.890625 -9.15625 L -4.46875 -10.21875 L -1 -12.0625 L -0.421875 -11 L -1.21875 -10.34375 L 2.6875 -3.015625 L 5.421875 -4.46875 L 5.015625 -5.828125 L 6.484375 -6.609375 L 7.796875 -4.15625 L 0.765625 -0.40625 Z M 0.203125 -1.46875 "/></g></g></g><g fill="#000000" fill-opacity="1"><g transform="translate(233.335322, 262.343688)"><g><path d="M 1.5625 -2.6875 L 2.21875 -3.453125 L -2.765625 -10.09375 L -4.0625 -9.109375 L -3.484375 -7.8125 L -4.671875 -6.921875 L -6.34375 -9.140625 L 0.671875 -14.421875 L 2.34375 -12.203125 L 1.15625 -11.3125 L 0.0625 -12.21875 L -1.21875 -11.25 L 3.765625 -4.609375 L 4.6875 -5.03125 L 5.40625 -4.0625 L 2.28125 -1.71875 Z M 1.5625 -2.6875 "/></g></g></g><g fill="#000000" fill-opacity="1"><g transform="translate(243.726982, 254.262197)"><g><path d="M 6.921875 -9.09375 L 7.796875 -8.265625 L 5.171875 -5.46875 L 4.296875 -6.296875 L 4.8125 -7.15625 L 2.953125 -7.96875 L 0.25 -5.09375 L 1.15625 -3.28125 L 2.0625 -3.9375 L 2.9375 -3.109375 L 0.15625 -0.171875 L -0.71875 -1 L -0.15625 -1.90625 L -3.921875 -9.78125 L -4.984375 -9.046875 L -5.921875 -9.9375 L -3.53125 -12.46875 L 6.09375 -8.515625 Z M 1.59375 -8.546875 L -2.25 -10.171875 L -0.40625 -6.421875 Z M 1.59375 -8.546875 "/></g></g></g><g fill="#000000" fill-opacity="1"><g transform="translate(253.96344, 243.012452)"><g><path d="M -0.546875 -1.375 L -0.203125 -2.34375 L -7.1875 -6.78125 L -7.90625 -6.046875 L -8.921875 -6.6875 L -7.234375 -9.34375 L 2.765625 -9.609375 L 0.90625 -10.578125 L -3.140625 -13.15625 L -3.859375 -12.4375 L -4.875 -13.078125 L -2.78125 -16.375 L -1.765625 -15.734375 L -2.109375 -14.796875 L 6.078125 -9.59375 L 5.046875 -7.953125 L -5.03125 -7.6875 L 0.828125 -3.96875 L 1.546875 -4.6875 L 2.5625 -4.046875 L 0.46875 -0.734375 Z M -0.546875 -1.375 "/></g></g></g><g fill="#000000" fill-opacity="1"><g transform="translate(262.448356, 228.756481)"><g><path d="M -0.03125 -3.109375 L 0.140625 -4.09375 L -7.5625 -7.234375 L -8.1875 -5.734375 L -7.015625 -4.90625 L -7.578125 -3.53125 L -10.15625 -4.578125 L -6.84375 -12.71875 L -4.265625 -11.671875 L -4.828125 -10.296875 L -6.234375 -10.515625 L -6.84375 -9.03125 L 0.859375 -5.890625 L 1.4375 -6.71875 L 2.546875 -6.265625 L 1.078125 -2.65625 Z M -0.03125 -3.109375 "/></g></g></g><g clip-path="url(#df91667b94)"><path fill="#000000" d="M 117.507812 192.804688 C 108.789062 194.410156 107.488281 195.710938 105.882812 204.429688 C 104.277344 195.710938 102.976562 194.410156 94.261719 192.804688 C 102.976562 191.199219 104.277344 189.898438 105.882812 181.179688 C 107.488281 189.898438 108.789062 191.199219 117.507812 192.804688 Z M 117.507812 192.804688 " fill-opacity="1" fill-rule="nonzero"/></g><g clip-path="url(#c2a2f7f82b)"><path stroke-linecap="butt" transform="matrix(1.255354, 0, 0, 1.251768, 152.065907, 143.318311)" fill="none" stroke-linejoin="miter" d="M 50.599313 70.698483 L 50.599313 15.398572 " stroke="#000000" stroke-width="2" stroke-opacity="1" stroke-miterlimit="10"/></g><g clip-path="url(#4d2ce555d2)"><path stroke-linecap="butt" transform="matrix(1.255354, 0, 0, 1.251768, 152.065907, 143.318311)" fill="none" stroke-linejoin="miter" d="M 38.199296 70.698483 L 38.199296 27.799782 " stroke="#000000" stroke-width="2" stroke-opacity="1" stroke-miterlimit="10"/></g><g clip-path="url(#5dc8e5a872)"><path stroke-linecap="butt" transform="matrix(1.255354, 0, 0, 1.251768, 152.065907, 143.318311)" fill="none" stroke-linejoin="miter" d="M 25.799279 70.698483 L 25.799279 40.300851 " stroke="#000000" stroke-width="2" stroke-opacity="1" stroke-miterlimit="10"/></g><g clip-path="url(#bbd4d956b3)"><path stroke-linecap="butt" transform="matrix(1.255354, 0, 0, 1.251768, 152.065907, 143.318311)" fill="none" stroke-linejoin="miter" d="M 13.399262 70.698483 L 13.399262 52.698941 " stroke="#000000" stroke-width="2" stroke-opacity="1" stroke-miterlimit="10"/></g><g clip-path="url(#b69cf9ff16)"><path stroke-linecap="butt" transform="matrix(1.255354, 0, 0, 1.251768, 152.065907, 143.318311)" fill="none" stroke-linejoin="miter" d="M 0.999244 70.698483 L 0.999244 61.498995 " stroke="#000000" stroke-width="2" stroke-opacity="1" stroke-miterlimit="10"/></g><g clip-path="url(#22f9c23198)"><path stroke-linecap="butt" transform="matrix(1.255354, 0, 0, 1.251768, 152.065907, 143.318311)" fill="none" stroke-linejoin="miter" d="M 0.999244 55.700945 L 53.698539 3.100341 " stroke="#000000" stroke-width="2" stroke-opacity="1" stroke-miterlimit="10"/></g><g clip-path="url(#cd921cbc87)"><path fill="#000000" d="M 223.246094 143.316406 C 222.113281 145.820312 220.984375 149.203125 220.859375 151.832031 L 218.976562 147.699219 L 214.832031 145.695312 C 217.34375 145.570312 220.734375 144.445312 223.246094 143.316406 Z M 223.246094 143.316406 " fill-opacity="1" fill-rule="nonzero"/></g></svg>